<?xml version="1.0" encoding="UTF-8"?>
<svg version="1.1" xmlns="http://www.w3.org/2000/svg" width="500" height="500">
<path d="M0 0 C165 0 330 0 500 0 C500 165 500 330 500 500 C335 500 170 500 0 500 C0 335 0 170 0 0 Z " fill="#FEFEFE" transform="translate(0,0)"/>
<path d="M0 0 C2.26424616 0.00315524 4.52717429 -0.02037508 6.79125977 -0.0456543 C20.00122286 -0.10405021 32.25284013 2.19862491 44.90258789 6.06567383 C45.74321777 6.32171387 46.58384766 6.57775391 47.44995117 6.84155273 C85.45694908 18.76771304 115.91443443 44.95420537 134.76196289 79.94848633 C141.19402224 92.38569844 145.90781463 105.44543814 148.55541992 119.19628906 C148.84760489 120.70788484 149.16374525 122.2149319 149.49584961 123.71826172 C151.14775686 131.67497288 151.36489204 139.52260785 151.34008789 147.62817383 C151.33921173 148.32954468 151.33833557 149.03091553 151.33743286 149.75354004 C151.17399778 189.61360286 135.0740572 226.28457743 107.09008789 254.56567383 C86.89643601 274.46590898 61.52199675 287.7700747 33.96508789 294.31567383 C33.21864014 294.5011377 32.47219238 294.68660156 31.703125 294.87768555 C22.40894684 296.8938972 12.99084485 296.71124352 3.52758789 296.69067383 C2.63524445 296.69046234 1.742901 296.69025085 0.82351685 296.69003296 C-12.18564149 296.65918582 -24.50854529 296.12491631 -37.03491211 292.31567383 C-37.68492187 292.13375488 -38.33493164 291.95183594 -39.00463867 291.7644043 C-53.55915621 287.67437287 -67.67767743 281.01219387 -80.03491211 272.31567383 C-81.4599707 271.31793945 -81.4599707 271.31793945 -82.91381836 270.30004883 C-114.56145874 247.35860417 -137.78660226 213.00538233 -144.13256836 174.03833008 C-145.22107362 166.05859892 -145.33806212 158.15503437 -145.2956543 150.1105957 C-145.28489365 147.68651512 -145.29563772 145.26317022 -145.30834961 142.83911133 C-145.31695297 134.13717036 -144.90772074 125.85305383 -143.03491211 117.31567383 C-142.86330566 116.50984863 -142.69169922 115.70402344 -142.51489258 114.8737793 C-133.76144397 75.97773643 -108.53465181 42.60918653 -75.03491211 21.31567383 C-52.49098323 7.359106 -26.44268541 -0.07674433 0 0 Z " fill="#14696C" transform="translate(256.034912109375,115.684326171875)"/>
<path d="M0 0 C33.45658023 9.21293548 62.13440586 32.4644135 80 62 C98.34286048 95.37333217 104.90788253 134.19282388 94.35693359 171.26855469 C90.14568416 185.01694582 84.20165758 199.14325589 76 211 C72.96684538 212.01105154 70.80312891 211.94398915 67.65527344 211.78295898 C55.22007249 211.24771421 43.74537245 214.21411746 31.78222656 217.33569336 C19.49292786 220.26998449 6.66041508 220.28072654 -5 215 C-13.18044678 209.07071376 -23.03392743 197.31202269 -25.6953125 187.4140625 C-26.56325966 181.78029636 -27.11578535 176.25933106 -27.375 170.5625 C-28.0693996 159.05194396 -31.43853046 149.45471595 -38 140 C-38.7425 138.9275 -39.485 137.855 -40.25 136.75 C-50.18199766 126.81800234 -61.47133496 124.55102709 -75 124 C-74.47212891 123.35998047 -74.47212891 123.35998047 -73.93359375 122.70703125 C-63.95074046 110.06555906 -59.03217768 97.63952899 -58.89453125 81.640625 C-58.88718964 80.9657605 -58.87984802 80.290896 -58.87228394 79.59558105 C-58.82499547 75.36672988 -58.82499547 75.36672988 -58.82495117 71.13769531 C-58.87450565 59.62498454 -56.7724848 49.2739301 -48.6328125 40.46875 C-41.79879367 34.32140291 -34.10112949 29.36449217 -26.375 24.4375 C-10.81070872 14.5635029 -10.81070872 14.5635029 0 0 Z " fill="#FCFDFD" transform="translate(299,131)"/>
<path d="M0 0 C33.30664959 -0.75888569 33.30664959 -0.75888569 47 5 C47.33 5.99 47.66 6.98 48 8 C42.20684076 19.35962964 29.64991323 26.48771369 19.3125 33.1875 C17.50689426 34.36336165 15.70280772 35.54140562 13.90141296 36.72370911 C12.27631734 37.78953192 10.64672379 38.84848752 9.0168457 39.90698242 C4.28029798 43.19308938 -0.02799575 46.47201582 -3.1875 51.375 C-3.88939453 52.43847656 -3.88939453 52.43847656 -4.60546875 53.5234375 C-7.87244613 59.32529649 -9.36865298 63.62522544 -9.44140625 70.33203125 C-9.45461411 71.00868332 -9.46782196 71.68533539 -9.48143005 72.38249207 C-9.52193636 74.52587 -9.54385938 76.66882918 -9.5625 78.8125 C-9.76904915 97.14947418 -11.876939 114.3677848 -25.21875 128.3203125 C-25.8065625 128.87460938 -26.394375 129.42890625 -27 130 C-30.91202968 128.69599011 -31.15162889 127.33699147 -33.0625 123.75 C-40.64934583 110.3222352 -57.89022127 83.03659291 -73 78 C-73.10739502 78.54237305 -73.21479004 79.08474609 -73.32543945 79.64355469 C-74.519336 85.36591862 -76.15169117 90.7739857 -78.1875 96.25 C-78.64225708 97.47855713 -78.64225708 97.47855713 -79.10620117 98.73193359 C-86.29884618 117.64942309 -86.29884618 117.64942309 -91 120 C-91.66 117.69 -92.32 115.38 -93 113 C-95.92101014 114.19004117 -97.29946228 115.32192195 -99.5 117.6875 C-102 120 -102 120 -104 120.0625 C-106 119 -106 119 -108.25 117.1875 C-114.11855212 112.51933354 -120.89249361 110.17173807 -128 108 C-125.47411748 86.09009765 -112.76871911 65.66886922 -99 49 C-98.56155762 48.46906738 -98.12311523 47.93813477 -97.67138672 47.39111328 C-84.9846298 32.27341948 -68.75649463 21.27926511 -51 13 C-50.40832031 13.94359375 -49.81664062 14.8871875 -49.20703125 15.859375 C-45.14758021 21.63600975 -39.66653739 23.3673786 -33 25 C-37.68619247 31.19246862 -37.68619247 31.19246862 -41 33 C-43.84863159 32.77510803 -46.08687159 31.96643598 -48.75 30.9375 C-53.52274939 29.56074537 -58.48395338 29.05759384 -63.2109375 30.828125 C-65.32816479 31.95063066 -65.32816479 31.95063066 -66 35 C-59.3488355 37.21705483 -49.71651246 39.1699047 -43.06201172 36.10839844 C-39.46211573 33.68841823 -36.48783298 30.65290151 -33.50683594 27.52197266 C-31.07067287 25.06133744 -28.39402374 22.97152084 -25.6875 20.8125 C-24.78386719 20.07644531 -23.88023437 19.34039062 -22.94921875 18.58203125 C-22.30597656 18.05996094 -21.66273438 17.53789062 -21 17 C-19.65462495 19.69075009 -19.71012041 22.0341346 -20.09765625 24.98046875 C-21.68700207 28.53757606 -25.05253068 29.32865037 -28.48046875 30.78515625 C-32.19015476 32.57385757 -33.74617067 34.58290391 -36 38 C-36.37600614 39.32193354 -36.71934507 40.65459237 -37 42 C-30.30545452 40.00338117 -26.58816261 37.23337298 -22 32 C-21.34 32.33 -20.68 32.66 -20 33 C-20.165 33.94875 -20.33 34.8975 -20.5 35.875 C-21.50510834 43.16203543 -22.07218644 49.55237147 -18 56 C-16.68 55.67 -15.36 55.34 -14 55 C-13.03562551 46.06799752 -13.03562551 46.06799752 -16.5 38.25 C-16.95761719 37.73824219 -17.41523438 37.22648437 -17.88671875 36.69921875 C-19.99852883 33.47592969 -19.37742112 29.69872693 -19 26 C-18.52691406 26.40992188 -18.05382812 26.81984375 -17.56640625 27.2421875 C-12.56509586 31.3173293 -8.38578034 33.14264986 -2 34 C-4.82325101 26.88049746 -8.25318908 23.59084412 -15 20 C-16.485 19.505 -16.485 19.505 -18 19 C-17.52971495 14.06562452 -16.21503461 11.42172342 -13.0625 7.625 C-12.35222656 6.75101563 -11.64195312 5.87703125 -10.91015625 4.9765625 C-10.27980469 4.32429687 -9.64945312 3.67203125 -9 3 C-8.34 3 -7.68 3 -7 3 C-6.95101562 3.65226563 -6.90203125 4.30453125 -6.8515625 4.9765625 C-6.42757771 9.93279853 -5.84334427 14.33019451 -4 19 C-3.01 18.67 -2.02 18.34 -1 18 C0.2062252 14.38132441 0.10816918 11.07493749 0.0625 7.3125 C0.05573242 6.2596582 0.05573242 6.2596582 0.04882812 5.18554688 C0.03706927 3.45699462 0.01913454 1.72848635 0 0 Z " fill="#078B4A" transform="translate(251,125)"/>
<path d="M0 0 C8.58 0 17.16 0 26 0 C30.39160634 4.74768253 31.20138772 6.24444071 33 12 C34.26375596 14.71417991 35.67271344 17.3486758 37.0625 20 C37.73491979 21.35196199 38.40294492 22.70611927 39.06640625 24.0625 C40.85911194 27.71779197 42.6758532 31.36029062 44.5 35 C45.33333333 36.66666667 46.16666667 38.33333333 47 40 C50.1109757 36.26510801 52.09418534 32.06524263 54.23046875 27.734375 C54.62575272 26.94097717 55.02103668 26.14757935 55.42829895 25.33013916 C56.68514591 22.80528488 57.9363891 20.27770072 59.1875 17.75 C60.040647 16.03367088 60.89415853 14.31752291 61.74804688 12.6015625 C63.83695187 8.40345217 65.91825154 4.20169413 68 0 C76.91 0 85.82 0 95 0 C95 24.42 95 48.84 95 74 C90.05 74.99 90.05 74.99 85 76 C80.48688749 78.32102929 77.38934332 79.98520456 74.75 84.3125 C74.1725 85.199375 73.595 86.08625 73 87 C71.68 87 70.36 87 69 87 C68.67 72.48 68.34 57.96 68 43 C65.40125 47.7025 65.40125 47.7025 62.75 52.5 C62.21213867 53.47130859 61.67427734 54.44261719 61.12011719 55.44335938 C58.29150214 60.57452971 55.58094462 65.73978907 53 71 C49.37 71 45.74 71 42 71 C40.06119141 67.45904416 38.12390972 63.91726738 36.1875 60.375 C35.64029297 59.37597656 35.09308594 58.37695312 34.52929688 57.34765625 C33.99755859 56.37441406 33.46582031 55.40117187 32.91796875 54.3984375 C32.43094482 53.50817871 31.9439209 52.61791992 31.44213867 51.70068359 C29.90826858 48.82821517 28.45628516 45.91257032 27 43 C26.67 57.52 26.34 72.04 26 87 C19.57097458 87 19.57097458 87 15.5625 83.3046875 C11.2032622 79.66472394 5.32074832 78.52021381 0 77 C0 51.59 0 26.18 0 0 Z " fill="#088A4B" transform="translate(277,202)"/>
<path d="M0 0 C3.098842 1.37296919 5.15297721 2.93353109 7.49609375 5.37109375 C8.13740234 6.02787109 8.77871094 6.68464844 9.43945312 7.36132812 C10.76765444 8.74146302 12.09577988 10.12167093 13.42382812 11.50195312 C18.20182201 16.40676372 18.20182201 16.40676372 24 20 C24.66 20 25.32 20 26 20 C26.14695312 18.51886719 26.14695312 18.51886719 26.296875 17.0078125 C26.44640625 15.72648437 26.5959375 14.44515625 26.75 13.125 C26.88921875 11.84882813 27.0284375 10.57265625 27.171875 9.2578125 C28 6 28 6 30.078125 4.5546875 C30.71234375 4.37164062 31.3465625 4.18859375 32 4 C33.79419526 5.93521061 35.58541329 7.8730354 37.375 9.8125 C37.88289063 10.35970703 38.39078125 10.90691406 38.9140625 11.47070312 C41.15216303 13.90022015 43.16379112 16.24568668 45 19 C49.9173802 17.21524197 54.27177008 14.59423935 58.74023438 11.921875 C62.4031311 9.77617812 65.92665603 8.19401839 70 7 C75.32536659 18.96305566 76.86707452 27.65701705 72.25390625 40.08203125 C67.33570668 51.52718726 60.11612729 59.75403305 48.65234375 64.96484375 C36.9304961 69.53964438 25.70200504 70.4578096 13.75 65.9375 C1.92142924 60.42485051 -6.33101799 51.80472605 -11.4375 39.8125 C-13.88721918 32.26009066 -14.80025022 23.6628389 -11.89453125 16.13671875 C-10.41657116 13.58892159 -8.8168031 11.31731068 -7 9 C-6.35417969 8.13890625 -5.70835937 7.2778125 -5.04296875 6.390625 C-3.39572679 4.23008768 -1.71805554 2.10436389 0 0 Z " fill="#14696C" transform="translate(149,249)"/>
<path d="M0 0 C2.84853065 1.28864841 4.84895069 2.61209929 6.99609375 4.87890625 C7.82451782 5.75337402 7.82451782 5.75337402 8.66967773 6.64550781 C9.25305908 7.27811523 9.83644043 7.91072266 10.4375 8.5625 C11.04859619 9.22217773 11.65969238 9.88185547 12.28930664 10.56152344 C38 38.77549588 38 38.77549588 38 48 C36.91460937 48.53109375 35.82921875 49.0621875 34.7109375 49.609375 C33.26551761 50.3226991 31.82021111 51.03625301 30.375 51.75 C29.66214844 52.09804688 28.94929688 52.44609375 28.21484375 52.8046875 C23.91036093 54.93718358 19.93558712 57.2438475 16 60 C10.91357138 58.05790907 8.43130166 53.71196791 5.21875 49.53125 C3.17262421 47.19693748 1.85430493 46.08982552 -1 45 C-2.95151627 46.95151627 -2.70968749 50.45168745 -3.0625 53.0625 C-3.23910156 54.35285156 -3.41570312 55.64320313 -3.59765625 56.97265625 C-3.73042969 57.97167969 -3.86320312 58.97070312 -4 60 C-5.485 60.495 -5.485 60.495 -7 61 C-13.16774351 57.71612104 -18.17296521 52.07678917 -23 47.125 C-23.67933594 46.43664062 -24.35867187 45.74828125 -25.05859375 45.0390625 C-26.71046886 43.36392154 -28.35743925 41.6842664 -30 40 C-28.35 38.02 -26.7 36.04 -25 34 C-22.53721199 36.46278801 -22.00228745 38.70676982 -21 42 C-15.98368521 40.32789507 -14.36370735 35.60235754 -12.00439453 31.06933594 C-7.16393177 21.0966178 -3.40299966 10.53694169 0 0 Z " fill="#078C4B" transform="translate(180,209)"/>
<path d="M0 0 C9.92465527 4.12220445 17.77757296 17.2788209 22.5 26.5625 C24.74150669 32.05032672 24.12979725 36.57231004 22.30859375 42.09765625 C19.39768631 48.87236908 14.28493898 53.65082863 7.5 56.4375 C-0.38528122 57.70477734 -6.18312975 57.39798081 -13 53 C-17.35224889 48.96217213 -21.42191334 44.52966373 -22.40625 38.51953125 C-22.6982826 30.08708993 -20.05237029 25.47121993 -14.48828125 19.33203125 C-13.36422045 18.18220401 -12.18822982 17.08338602 -11 16 C-8 17 -8 17 -6.8125 19.0625 C-6.544375 19.701875 -6.27625 20.34125 -6 21 C-4.09304023 15.25513377 -2.665616 9.87105945 -2.30859375 3.8125 C-2 2 -2 2 0 0 Z " fill="#15696C" transform="translate(179,253)"/>
<path d="M0 0 C3.20818356 0.58093783 4.84681476 1.47010406 7.13671875 3.7734375 C7.7095459 4.34545898 8.28237305 4.91748047 8.87255859 5.50683594 C9.47148926 6.12333008 10.07041992 6.73982422 10.6875 7.375 C11.30963379 8.00696289 11.93176758 8.63892578 12.57275391 9.29003906 C17.74201053 14.60262569 22.43082956 20.16210845 27 26 C27.67417969 26.80695313 28.34835938 27.61390625 29.04296875 28.4453125 C41.76790563 43.7546176 50.26277351 58.73195655 49.22216797 78.8359375 C47.92679482 91.45372602 39.67173693 101.27710913 30.39453125 109.2109375 C18.58909409 118.03131306 5.27476771 119.40190917 -9 118 C-21.5087559 115.17828669 -31.54835625 107.28261758 -39 97 C-40.93457474 93.42545582 -42.52127313 89.78278967 -44 86 C-44.36351562 85.22398437 -44.72703125 84.44796875 -45.1015625 83.6484375 C-47.35878761 76.99453044 -47.1742816 68.5496345 -44.97265625 61.89453125 C-39.38910803 51.17597469 -30.6541659 42.28590352 -22 34 C-20.515 34.495 -20.515 34.495 -19 35 C-17.8125 38.0625 -17.8125 38.0625 -17 41 C-9.20068997 28.12157526 -4.64203469 14.26485589 0 0 Z M2 6 C1.82984375 6.52207031 1.6596875 7.04414063 1.484375 7.58203125 C-3.14532552 21.64351528 -8.11568195 35.97030226 -17 48 C-17.66 48 -18.32 48 -19 48 C-19.99 45.36 -20.98 42.72 -22 40 C-28.64015155 45.08607353 -33.19748003 51.19488483 -38 58 C-38.48210937 58.59554687 -38.96421875 59.19109375 -39.4609375 59.8046875 C-43.66179 65.55479057 -42.753075 73.31562636 -42 80 C-39.0345438 92.28546138 -32.13758453 101.71187562 -21.5546875 108.53125 C-11.26202624 114.44874333 -0.49151997 116.5160874 11.25 113.875 C23.94966372 110.11401061 34.22220762 103.50894407 40.71484375 91.69921875 C45.90584672 80.7965347 48.1090035 71.22771159 44 59.625 C37.37641315 43.95411155 26.51400156 30.66790688 15.06640625 18.2578125 C12.49047472 15.44327862 10.04183455 12.52942039 7.60546875 9.59375 C5.8609062 7.86192149 4.20615436 7.04566216 2 6 Z " fill="#F1F7F5" transform="translate(178,203)"/>
<path d="M0 0 C0.33 0 0.66 0 1 0 C1 26.4 1 52.8 1 80 C-0.98 80.495 -0.98 80.495 -3 81 C-4.48096125 79.815231 -5.95603738 78.61951148 -7.359375 77.34375 C-11.25802563 74.15056948 -16.08751102 72.74431651 -21 72 C-21 70.68 -21 69.36 -21 68 C-19.515 67.505 -19.515 67.505 -18 67 C-17.67 63.04 -17.34 59.08 -17 55 C-17.66 55 -18.32 55 -19 55 C-19.33 52.03 -19.66 49.06 -20 46 C-19.34 46 -18.68 46 -18 46 C-18 46.66 -18 47.32 -18 48 C-16.02 48.33 -14.04 48.66 -12 49 C-12.515625 48.2575 -13.03125 47.515 -13.5625 46.75 C-15.18112295 43.65350391 -14.97741997 43.14946434 -14 40 C-14.66 39.34 -15.32 38.68 -16 38 C-16.125 35.375 -16.125 35.375 -16 33 C-13.69 33.99 -11.38 34.98 -9 36 C-9.11409593 34.54077307 -9.24165544 33.08259402 -9.375 31.625 C-9.44460938 30.81289062 -9.51421875 30.00078125 -9.5859375 29.1640625 C-9.82892588 26.79665809 -9.82892588 26.79665809 -12 25 C-11.625 22.875 -11.625 22.875 -11 21 C-8.525 21.99 -8.525 21.99 -6 23 C-6.58174845 17.6913151 -6.58174845 17.6913151 -9 13 C-9 12.01 -9 11.02 -9 10 C-7.68 10.33 -6.36 10.66 -5 11 C-5 9.68 -5 8.36 -5 7 C-4.34 6.67 -3.68 6.34 -3 6 C-2.29788106 4.34795544 -1.63028587 2.68076231 -1 1 C-0.67 0.67 -0.34 0.34 0 0 Z " fill="#04562D" transform="translate(300,208)"/>
<path d="M0 0 C0.99 0.33 1.98 0.66 3 1 C4.4158649 3.91038896 5.29922267 6.846502 6 10 C7.32 9.67 8.64 9.34 10 9 C9.49396008 11.16874252 9.00016187 12.99967627 8 15 C7.63858045 17.32914823 7.30300475 19.66253478 7 22 C8.98 21.34 10.96 20.68 13 20 C12.25 24.75 12.25 24.75 10 27 C9.54188325 28.97235333 9.54188325 28.97235333 9.375 31.125 C9.25125 32.40375 9.1275 33.6825 9 35 C11.47266765 34.65555119 11.47266765 34.65555119 14 34 C14.33 33.34 14.66 32.68 15 32 C15.66 32 16.32 32 17 32 C17.20086443 35.71599191 17.1519437 36.77208445 15 40 C14.61500109 41.65549531 14.27206865 43.3222433 14 45 C13.34 45 12.68 45 12 45 C12 45.99 12 46.98 12 48 C12.928125 47.690625 13.85625 47.38125 14.8125 47.0625 C16.875 46.375 18.9375 45.6875 21 45 C21.25276461 49.54976303 21.25276461 49.54976303 20 51.78125 C18.68094984 54.70789254 18.80555128 57.05535906 18.875 60.25 C18.90207031 61.86648438 18.90207031 61.86648438 18.9296875 63.515625 C18.95289063 64.33546875 18.97609375 65.1553125 19 66 C18.26394531 66.36351562 17.52789062 66.72703125 16.76953125 67.1015625 C10.85179846 70.1503284 7.01069355 72.73596472 3 78 C2.01 78 1.02 78 0 78 C0 52.26 0 26.52 0 0 Z " fill="#03562D" transform="translate(348,209)"/>
<path d="M0 0 C1.32 0.33 2.64 0.66 4 1 C3.28972656 1.89203125 2.57945312 2.7840625 1.84765625 3.703125 C0.91892576 4.88514562 -0.00944066 6.06745236 -0.9375 7.25 C-1.40607422 7.83652344 -1.87464844 8.42304688 -2.35742188 9.02734375 C-4.67352315 11.99328639 -6.26747255 14.31282835 -7 18 C-6.34 18.04125 -5.68 18.0825 -5 18.125 C0.4114699 19.70334539 4.65868789 23.19761185 8 27.6875 C9 30 9 30 9 33 C3.26337126 33.4589303 0.49623338 32.57654928 -4 29 C-5.875 27.25 -5.875 27.25 -7 26 C-7.62970079 31.06816736 -7.62970079 31.06816736 -5.88671875 35.6328125 C-5.20029297 36.40238281 -5.20029297 36.40238281 -4.5 37.1875 C-1.00683841 41.44262602 -1.52546332 45.91927197 -1.62890625 51.20703125 C-2 54 -2 54 -4 56 C-5.9375 56 -5.9375 56 -8 55 C-12.34313027 48.95063998 -11.47037904 41.91024802 -10.5 34.875 C-10.2525 33.451875 -10.2525 33.451875 -10 32 C-10.44730469 32.39832031 -10.89460938 32.79664063 -11.35546875 33.20703125 C-20.24817518 41 -20.24817518 41 -26 41 C-26 37.66590928 -25.55312353 35.61134706 -23.29296875 33.11328125 C-15.25511006 26 -15.25511006 26 -10 26 C-10 23.03 -10 20.06 -10 17 C-11.35404069 18.15168803 -12.70794972 19.30353113 -14.0612793 20.45605469 C-15.24094905 21.45399642 -16.42615173 22.4454299 -17.61645508 23.43066406 C-20.45083459 25.78413363 -23.11307683 28.11686803 -25.6796875 30.76953125 C-29.73356207 34.7792047 -32.79900282 37.18467127 -38.58203125 37.40234375 C-50.28049852 37.14633432 -50.28049852 37.14633432 -55 34 C-54.75 32.125 -54.75 32.125 -54 30 C-49.81129325 27.38205828 -45.79530684 27.44881531 -41 28 C-38.77734375 28.7109375 -38.77734375 28.7109375 -36.6875 29.5625 C-32.71899404 31.15369727 -32.71899404 31.15369727 -29 30 C-27.27381863 28.84089623 -27.27381863 28.84089623 -25.75 27.4375 C-24.8425 26.633125 -23.935 25.82875 -23 25 C-23.66386719 24.76925781 -24.32773438 24.53851563 -25.01171875 24.30078125 C-30.34497347 22.3309806 -34.46715427 20.67247338 -38 16 C-38.8125 13.1875 -38.8125 13.1875 -39 11 C-37 12 -37 12 -36.1875 13.8125 C-34.20147105 17.47097439 -31.6822056 19.49759632 -27.671875 20.6953125 C-25.45388879 21.19052326 -23.24181587 21.62880609 -21 22 C-21.495 20.515 -21.495 20.515 -22 19 C-21.34 19 -20.68 19 -20 19 C-20 19.66 -20 20.32 -20 21 C-15.45177799 18.59509597 -12.22648405 15.4632867 -8.6875 11.8125 C-8.13771484 11.25369141 -7.58792969 10.69488281 -7.02148438 10.11914062 C-5.67636304 8.75062588 -4.33753357 7.37593167 -3 6 C-3.85851562 6.16371094 -4.71703125 6.32742187 -5.6015625 6.49609375 C-8.92419426 6.98875984 -12.02032873 7.09977413 -15.375 7.0625 C-16.96441406 7.04896484 -16.96441406 7.04896484 -18.5859375 7.03515625 C-19.38257813 7.02355469 -20.17921875 7.01195312 -21 7 C-20.67 6.01 -20.34 5.02 -20 4 C-19.505 4.99 -19.505 4.99 -19 6 C-16.93643105 5.7159949 -14.8741715 5.42246648 -12.8125 5.125 C-11.08966797 4.88136719 -11.08966797 4.88136719 -9.33203125 4.6328125 C-6.28935578 4.05495385 -3.77172612 3.36812807 -1 2 C-0.67 1.34 -0.34 0.68 0 0 Z " fill="#CCE7DA" transform="translate(240,126)"/>
<path d="M0 0 C0.33 1.32 0.66 2.64 1 4 C-1.31 5.65 -3.62 7.3 -6 9 C-5.46930939 12.82097239 -4.50298434 15.06171403 -2 18 C-1.44570313 17.71125 -0.89140625 17.4225 -0.3203125 17.125 C0.76636719 16.568125 0.76636719 16.568125 1.875 16 C2.95394531 15.443125 2.95394531 15.443125 4.0546875 14.875 C6 14 6 14 8 14 C8.495 16.475 8.495 16.475 9 19 C-14.71541502 35 -14.71541502 35 -19 35 C-21.12202599 32.53365294 -22.6228604 29.62322279 -24.25 26.8125 C-24.72179687 26.04357422 -25.19359375 25.27464844 -25.6796875 24.48242188 C-26.12054688 23.73154297 -26.56140625 22.98066406 -27.015625 22.20703125 C-27.42071289 21.5210083 -27.82580078 20.83498535 -28.24316406 20.12817383 C-29.24567317 17.3091829 -29.02056173 15.7981398 -28 13 C-26.25341797 11.56201172 -26.25341797 11.56201172 -23.9921875 10.4296875 C-23.16976563 10.00816406 -22.34734375 9.58664062 -21.5 9.15234375 C-20.63375 8.73082031 -19.7675 8.30929687 -18.875 7.875 C-18.03195312 7.44574219 -17.18890625 7.01648438 -16.3203125 6.57421875 C-3.29324519 0 -3.29324519 0 0 0 Z " fill="#2A777A" transform="translate(304,370)"/>
<path d="M0 0 C9.92465527 4.12220445 17.77757296 17.2788209 22.5 26.5625 C24.74150669 32.05032672 24.12979725 36.57231004 22.30859375 42.09765625 C19.39768631 48.87236908 14.28493898 53.65082863 7.5 56.4375 C-0.38528122 57.70477734 -6.18312975 57.39798081 -13 53 C-17.35224889 48.96217213 -21.42191334 44.52966373 -22.40625 38.51953125 C-22.6982826 30.08708993 -20.05237029 25.47121993 -14.48828125 19.33203125 C-13.36422045 18.18220401 -12.18822982 17.08338602 -11 16 C-8 17 -8 17 -6.8125 19.0625 C-6.544375 19.701875 -6.27625 20.34125 -6 21 C-4.09304023 15.25513377 -2.665616 9.87105945 -2.30859375 3.8125 C-2 2 -2 2 0 0 Z M2 7 C1.61908203 8.51980469 1.61908203 8.51980469 1.23046875 10.0703125 C0.88316874 11.42196658 0.53549241 12.77352401 0.1875 14.125 C0.02185547 14.79015625 -0.14378906 15.4553125 -0.31445312 16.140625 C-1.42377839 20.41048075 -2.96164 24.06345376 -5 28 C-5 28.66 -5 29.32 -5 30 C-8 29 -8 29 -9.6875 25.9375 C-10.120625 24.968125 -10.55375 23.99875 -11 23 C-15.96176844 26.56492989 -15.96176844 26.56492989 -18.3359375 31.98046875 C-18.43881175 37.79286378 -17.53507318 42.28314363 -14 47 C-8.94229293 51.63239989 -4.2451488 53.37736803 2.58984375 53.27734375 C8.00920558 52.65372189 12.28951203 50.1197627 15.875 46.0625 C19.41434156 40.96168423 20.71903763 37.26589938 20 31 C17.01101797 21.98535739 10.38554529 14.81741791 4 8 C3.34 7.67 2.68 7.34 2 7 Z " fill="#EEF5F4" transform="translate(179,253)"/>
<path d="M0 0 C1.11375 0.2475 1.11375 0.2475 2.25 0.5 C5.19006578 1.11925696 5.19006578 1.11925696 9 1 C9.99 1.33 10.98 1.66 12 2 C11.9071875 3.1446875 11.9071875 3.1446875 11.8125 4.3125 C11.70813718 7.04989692 11.70813718 7.04989692 13.5625 8.5625 C14.036875 9.036875 14.51125 9.51125 15 10 C14.35517534 14.61514508 11.505476 17.58885936 8.6875 21.125 C7.95756836 22.07439453 7.95756836 22.07439453 7.21289062 23.04296875 C2.75178527 28.69890582 2.75178527 28.69890582 -1 30 C-2.65766805 28.95606023 -4.30083631 27.88907121 -5.9375 26.8125 C-6.85402344 26.22082031 -7.77054688 25.62914062 -8.71484375 25.01953125 C-11.34760044 22.6928044 -11.72087372 21.43859819 -12 18 C-12.66 18.33 -13.32 18.66 -14 19 C-12.66895994 16.13909231 -11.16444643 13.77740198 -9.1796875 11.328125 C-8.37724609 10.33232422 -8.37724609 10.33232422 -7.55859375 9.31640625 C-7.00300781 8.63449219 -6.44742188 7.95257813 -5.875 7.25 C-5.03001953 6.20392578 -5.03001953 6.20392578 -4.16796875 5.13671875 C-2.78192264 3.42178035 -1.39252792 1.709676 0 0 Z " fill="#14696C" transform="translate(257,375)"/>
<path d="M0 0 C0.928125 0.20625 1.85625 0.4125 2.8125 0.625 C2.8125 1.285 2.8125 1.945 2.8125 2.625 C3.410625 2.728125 4.00875 2.83125 4.625 2.9375 C7.17255783 3.73816103 8.22774098 4.48557532 9.8125 6.625 C9.8125 7.945 9.8125 9.265 9.8125 10.625 C10.66908203 10.95564453 10.66908203 10.95564453 11.54296875 11.29296875 C14.52613949 13.04384865 16.07188884 15.16373557 18.125 17.9375 C18.84300781 18.88238281 19.56101563 19.82726562 20.30078125 20.80078125 C21.8125 23.625 21.8125 23.625 21.68359375 26.3359375 C20.44173585 29.59929502 18.75868357 30.81711463 15.8125 32.625 C13.44140625 33.08984375 13.44140625 33.08984375 10.8125 32.625 C8.92545229 30.71695176 7.51494177 29.04280352 6 26.875 C5.59330078 26.33617187 5.18660156 25.79734375 4.76757812 25.2421875 C2.42052011 22.00758654 1.8125 20.7485781 1.8125 16.625 C1.19375 16.521875 0.575 16.41875 -0.0625 16.3125 C-2.1875 15.625 -2.1875 15.625 -4.1875 12.625 C-4.62861565 10.74345117 -4.9984267 8.84437362 -5.3125 6.9375 C-5.48007813 5.94363281 -5.64765625 4.94976562 -5.8203125 3.92578125 C-5.94148437 3.16652344 -6.06265625 2.40726562 -6.1875 1.625 C-3.1875 -0.375 -3.1875 -0.375 0 0 Z " fill="#45888A" transform="translate(205.1875,358.375)"/>
<path d="M0 0 C3.81684226 1.55500981 6.19195732 4.03595495 9 7 C9.33 6.01 9.66 5.02 10 4 C11.98 3.67 13.96 3.34 16 3 C20.3134105 8.24266614 24.23286728 13.69156386 27.9375 19.375 C28.3389624 19.98166504 28.7404248 20.58833008 29.15405273 21.21337891 C32 25.64095781 32 25.64095781 32 29 C27.31217667 27.48814979 25.44292135 23.62781033 22.9375 19.6875 C22.50373047 19.02298828 22.06996094 18.35847656 21.62304688 17.67382812 C19.33955462 14.15996105 17.12956142 10.60978116 15 7 C14.01 7.33 13.02 7.66 12 8 C12.639375 8.721875 13.27875 9.44375 13.9375 10.1875 C15.98673535 12.98191184 16.61332946 14.61663274 17 18 C17.99 18.33 18.98 18.66 20 19 C19.67 19.66 19.34 20.32 19 21 C18.34 20.67 17.68 20.34 17 20 C17.33 21.32 17.66 22.64 18 24 C16.58208592 23.54554036 15.16571954 23.08625056 13.75 22.625 C12.56664062 22.24214844 12.56664062 22.24214844 11.359375 21.8515625 C9.13372042 21.04826333 7.09068328 20.10288338 5 19 C5 18.34 5 17.68 5 17 C4.484375 16.773125 3.96875 16.54625 3.4375 16.3125 C0.07596873 14.5024447 -2.92911144 12.26003596 -6 10 C-5.15256083 5.51928716 -2.97965011 3.36165653 0 0 Z " fill="#498B8D" transform="translate(168,352)"/>
<path d="M0 0 C0.99 0.99 1.98 1.98 3 3 C2.34 3.66 1.68 4.32 1 5 C1.66 5.33 2.32 5.66 3 6 C3 14.10096776 -0.8096597 18.09707123 -6 24 C-7.34094512 25.66054862 -8.67648277 27.32552764 -10 29 C-13.99500618 27.6302836 -16.80009492 25.74277578 -20 23 C-19.4337806 18.78938663 -16.95812669 15.82913551 -14.4375 12.5625 C-13.99220947 11.98209961 -13.54691895 11.40169922 -13.08813477 10.80371094 C-9.55466835 6.3612069 -6.0951822 3.59391094 -1 1 C-0.67 0.67 -0.34 0.34 0 0 Z " fill="#2A7779" transform="translate(245,341)"/>
<path d="M0 0 C1.32 0.33 2.64 0.66 4 1 C2.38247153 3.17262127 0.75661363 5.33799958 -0.875 7.5 C-1.33519531 8.12003906 -1.79539063 8.74007812 -2.26953125 9.37890625 C-3.46562174 10.95635892 -4.72856726 12.48261798 -6 14 C-6.66 14 -7.32 14 -8 14 C-9.70443155 15.628026 -11.36399328 17.30322731 -13 19 C-16.46722481 22.28321009 -19.99105108 25.48841117 -23.55566406 28.66503906 C-24.80756182 29.82213455 -25.98601962 31.05773014 -27.1484375 32.3046875 C-30.72588414 35.82557371 -33.44921889 37.15881621 -38.453125 37.26953125 C-50.55241696 36.96505536 -50.55241696 36.96505536 -55 34 C-54.75 32.125 -54.75 32.125 -54 30 C-49.81129325 27.38205828 -45.79530684 27.44881531 -41 28 C-38.77734375 28.7109375 -38.77734375 28.7109375 -36.6875 29.5625 C-32.71899404 31.15369727 -32.71899404 31.15369727 -29 30 C-27.27381863 28.84089623 -27.27381863 28.84089623 -25.75 27.4375 C-24.8425 26.633125 -23.935 25.82875 -23 25 C-23.66386719 24.76925781 -24.32773438 24.53851563 -25.01171875 24.30078125 C-30.34497347 22.3309806 -34.46715427 20.67247338 -38 16 C-38.8125 13.1875 -38.8125 13.1875 -39 11 C-37 12 -37 12 -36.1875 13.8125 C-34.20147105 17.47097439 -31.6822056 19.49759632 -27.671875 20.6953125 C-25.45388879 21.19052326 -23.24181587 21.62880609 -21 22 C-21.495 20.515 -21.495 20.515 -22 19 C-21.34 19 -20.68 19 -20 19 C-20 19.66 -20 20.32 -20 21 C-15.45177799 18.59509597 -12.22648405 15.4632867 -8.6875 11.8125 C-8.13771484 11.25369141 -7.58792969 10.69488281 -7.02148438 10.11914062 C-5.67636304 8.75062588 -4.33753357 7.37593167 -3 6 C-3.85851562 6.16371094 -4.71703125 6.32742187 -5.6015625 6.49609375 C-8.92419426 6.98875984 -12.02032873 7.09977413 -15.375 7.0625 C-16.96441406 7.04896484 -16.96441406 7.04896484 -18.5859375 7.03515625 C-19.38257813 7.02355469 -20.17921875 7.01195312 -21 7 C-20.67 6.01 -20.34 5.02 -20 4 C-19.505 4.99 -19.505 4.99 -19 6 C-16.93643105 5.7159949 -14.8741715 5.42246648 -12.8125 5.125 C-11.08966797 4.88136719 -11.08966797 4.88136719 -9.33203125 4.6328125 C-6.28935578 4.05495385 -3.77172612 3.36812807 -1 2 C-0.67 1.34 -0.34 0.68 0 0 Z " fill="#C6E4D6" transform="translate(240,126)"/>
<path d="M0 0 C-0.5259375 0.86625 -0.5259375 0.86625 -1.0625 1.75 C-2.13736135 3.89219317 -2.13736135 3.89219317 -1.9375 5.9375 C-0.58651168 8.9096743 1.67770066 10.74458288 4 13 C1.9909912 14.80659739 -0.03053925 16.59453056 -2.0625 18.375 C-2.62388672 18.88289063 -3.18527344 19.39078125 -3.76367188 19.9140625 C-8.40127853 23.94215514 -12.69334043 26 -19 26 C-20.6875 24.5 -20.6875 24.5 -22 23 C-21.505 21.515 -21.505 21.515 -21 20 C-20.34 19.67 -19.68 19.34 -19 19 C-18.67515625 17.69675781 -18.67515625 17.69675781 -18.34375 16.3671875 C-16.46346177 11.65553502 -13.34914356 9.3050401 -9.5 6.125 C-8.81035156 5.53203125 -8.12070313 4.9390625 -7.41015625 4.328125 C-2.29419283 0 -2.29419283 0 0 0 Z " fill="#86B1B3" transform="translate(231,324)"/>
<path d="M0 0 C2 1 2 1 3 3 C2.01 3 1.02 3 0 3 C0 3.66 0 4.32 0 5 C1.32 4.67 2.64 4.34 4 4 C4 3.01 4 2.02 4 1 C4.66 1 5.32 1 6 1 C5.979375 1.969375 5.95875 2.93875 5.9375 3.9375 C5.64381501 6.87465895 5.64381501 6.87465895 7 8 C7.5939993 14.68249215 5.73516943 20.56541335 4 27 C0.04 26.01 -3.92 25.02 -8 24 C-7.67 24.99 -7.34 25.98 -7 27 C-5.19851716 27.84102577 -5.19851716 27.84102577 -3.0625 28.25 C-2.35222656 28.42015625 -1.64195312 28.5903125 -0.91015625 28.765625 C1.08301918 29.18882936 1.08301918 29.18882936 3 28 C3 28.99 3 29.98 3 31 C-2.94 30.01 -2.94 30.01 -9 29 C-10.36687932 24.89936203 -9.27508293 21.64234439 -8.3125 17.5625 C-8.15072266 16.79873047 -7.98894531 16.03496094 -7.82226562 15.24804688 C-6.75645347 10.661462 -5.69747805 8.12978445 -2 5 C-0.74563813 2.36777038 -0.74563813 2.36777038 0 0 Z " fill="#AAC9CA" transform="translate(259,313)"/>
<path d="M0 0 C6.3986611 0.33012819 12.69613439 0.14615738 19 -1 C15.57758525 3.12444855 12.04156707 7.086568 8.3125 10.9375 C7.56613281 11.70964844 6.81976563 12.48179687 6.05078125 13.27734375 C4 15 4 15 1 15 C1 14.34 1 13.68 1 13 C0.34 13 -0.32 13 -1 13 C-1 12.34 -1 11.68 -1 11 C-1.57234375 10.71382812 -2.1446875 10.42765625 -2.734375 10.1328125 C-6.15625 8.421875 -9.578125 6.7109375 -13 5 C-13 4.34 -13 3.68 -13 3 C-11.21189234 2.30329584 -9.41937948 1.61788811 -7.625 0.9375 C-6.62726563 0.55464844 -5.62953125 0.17179688 -4.6015625 -0.22265625 C-2 -1 -2 -1 0 0 Z " fill="#0A8D4D" transform="translate(219,132)"/>
<path d="M0 0 C0.66 0.33 1.32 0.66 2 1 C1.17757812 1.51175781 0.35515625 2.02351562 -0.4921875 2.55078125 C-3.33646418 4.81281168 -3.33646418 4.81281168 -3.3828125 8.35546875 C-3.29773438 9.62003906 -3.21265625 10.88460937 -3.125 12.1875 C-2.83749958 18.48268869 -3.54837334 23.17738667 -6 29 C-7.65 29.33 -9.3 29.66 -11 30 C-13.83966497 25.74050254 -13.52380564 22.00272345 -13 17 C-12.20085222 14.51016964 -11.1559041 12.35997087 -10 10 C-10 9.01 -10 8.02 -10 7 C-7.25 5 -7.25 5 -4 3 C-2.65824027 2.01133494 -1.32103998 1.0161846 0 0 Z " fill="#139153" transform="translate(202,163)"/>
<path d="M0 0 C0.66 0.33 1.32 0.66 2 1 C-12.76082709 12.70408906 -12.76082709 12.70408906 -22.15234375 12.2734375 C-24 12 -24 12 -26 11 C-24.49049079 7.15761292 -22.41857269 5.27281304 -19 3 C-15.625 2.4609375 -15.625 2.4609375 -12 2.375 C-7.4368936 2.24715435 -4.19272597 1.75196049 0 0 Z " fill="#D7ECE2" transform="translate(189,172)"/>
<path d="M0 0 C4.15498821 1.56624733 5.84759303 4.58300125 8.30859375 8.16015625 C8.77716797 8.81242187 9.24574219 9.4646875 9.72851562 10.13671875 C17.74609375 21.4398219 17.74609375 21.4398219 17.74609375 26.03515625 C13.05827042 24.52330604 11.1890151 20.66296658 8.68359375 16.72265625 C8.24982422 16.05814453 7.81605469 15.39363281 7.36914062 14.70898438 C5.08564837 11.1951173 2.87565517 7.64493741 0.74609375 4.03515625 C-0.24390625 4.36515625 -1.23390625 4.69515625 -2.25390625 5.03515625 C-1.61453125 5.75703125 -0.97515625 6.47890625 -0.31640625 7.22265625 C1.7328291 10.01706809 2.35942321 11.65178899 2.74609375 15.03515625 C3.73609375 15.36515625 4.72609375 15.69515625 5.74609375 16.03515625 C5.41609375 16.69515625 5.08609375 17.35515625 4.74609375 18.03515625 C2.48732584 15.93216544 0.78487353 14.10302086 -0.75390625 11.41015625 C-2.42729622 8.76062214 -3.52009675 8.3579673 -6.25390625 7.03515625 C-7.50390625 4.91015625 -7.50390625 4.91015625 -8.25390625 3.03515625 C-7.26390625 3.03515625 -6.27390625 3.03515625 -5.25390625 3.03515625 C-4.80015625 2.51953125 -4.34640625 2.00390625 -3.87890625 1.47265625 C-2.25390625 0.03515625 -2.25390625 0.03515625 0 0 Z " fill="#86B1B3" transform="translate(182.25390625,354.96484375)"/>
<path d="M0 0 C1.8125 0 1.8125 0 4 1 C5.8456968 2.89828075 7.38401815 4.89024592 9 7 C8.5 9.3125 8.5 9.3125 7 12 C3.44007019 13.96834132 0.06351009 15 -4 15 C-5.6875 13.5 -5.6875 13.5 -7 12 C-6.67 11.01 -6.34 10.02 -6 9 C-5.34 8.67 -4.68 8.34 -4 8 C-3.32060826 6.00428677 -2.65438441 4.00405227 -2 2 C-1.34 1.34 -0.68 0.68 0 0 Z " fill="#196C6F" transform="translate(216,335)"/>
<path d="M0 0 C0.66 0.33 1.32 0.66 2 1 C1.08390821 5.65092754 -1.41328954 8.4869222 -4.3125 12.125 C-4.79912109 12.75792969 -5.28574219 13.39085937 -5.78710938 14.04296875 C-6.26599609 14.65011719 -6.74488281 15.25726563 -7.23828125 15.8828125 C-7.67180908 16.43340332 -8.10533691 16.98399414 -8.55200195 17.55126953 C-10 19 -10 19 -14 21 C-17.3 18.69 -20.6 16.38 -24 14 C-23.34 12.68 -22.68 11.36 -22 10 C-19.36 11.98 -16.72 13.96 -14 16 C-11.12735154 13.2118412 -8.35581408 10.36021599 -5.6875 7.375 C-4.91986328 6.52035156 -4.91986328 6.52035156 -4.13671875 5.6484375 C-2.71615632 3.92210581 -2.71615632 3.92210581 -3 1 C-2.01 0.67 -1.02 0.34 0 0 Z " fill="#7DACAE" transform="translate(270,384)"/>
<path d="M0 0 C1.11375 0.2475 1.11375 0.2475 2.25 0.5 C5.19006578 1.11925696 5.19006578 1.11925696 9 1 C9.99 1.33 10.98 1.66 12 2 C11.979375 2.78375 11.95875 3.5675 11.9375 4.375 C11.81315937 6.98114961 11.81315937 6.98114961 13 9 C9.4213696 7.34832443 6.25179812 5.21713508 3 3 C4.32 4.65 5.64 6.3 7 8 C6.38125 7.67 5.7625 7.34 5.125 7 C3.08981656 5.85806765 3.08981656 5.85806765 1 6 C-1.39785001 8.73182286 -3.6695138 11.52916856 -5.92382812 14.37890625 C-7.22076828 15.97163977 -8.6057047 17.49175783 -10 19 C-10.99 19 -11.98 19 -13 19 C-13 15.43885446 -12.37271925 14.87105679 -10.15625 12.20703125 C-9.56972656 11.49482422 -8.98320312 10.78261719 -8.37890625 10.04882812 C-7.75886719 9.31083984 -7.13882813 8.57285156 -6.5 7.8125 C-5.87996094 7.06291016 -5.25992188 6.31332031 -4.62109375 5.54101562 C-3.08716319 3.68849949 -1.54666491 1.84188552 0 0 Z " fill="#8AB4B6" transform="translate(257,375)"/>
<path d="M0 0 C0.33 0.99 0.66 1.98 1 3 C-22.71541502 19 -22.71541502 19 -27 19 C-27.33 17.68 -27.66 16.36 -28 15 C-24.65163037 13.19734327 -21.29535939 11.40990865 -17.9375 9.625 C-16.52307617 8.86316406 -16.52307617 8.86316406 -15.08007812 8.0859375 C-10.10565155 5.45139799 -5.49373294 3.26485391 0 2 C0 1.34 0 0.68 0 0 Z " fill="#77A8AA" transform="translate(312,386)"/>
<path d="M0 0 C3.3 0.66 6.6 1.32 10 2 C9.25 9.625 9.25 9.625 7 13 C2.545 12.01 2.545 12.01 -2 11 C-1.125 3.375 -1.125 3.375 0 0 Z " fill="#12686B" transform="translate(254,325)"/>
<path d="M0 0 C5.02516349 0.478587 7.95344986 2.03252989 12 5 C12.99 5.66 13.98 6.32 15 7 C15.6875 9.625 15.6875 9.625 16 12 C10.29519873 12.09243891 6.77482374 11.28600192 2.4375 7.4375 C1.27366088 6.30995995 0.1211338 5.17001157 -1 4 C-0.67 2.68 -0.34 1.36 0 0 Z " fill="#319F69" transform="translate(203,136)"/>
<path d="M0 0 C1.32 0.33 2.64 0.66 4 1 C4.0825 1.61875 4.165 2.2375 4.25 2.875 C4.81258459 5.18437567 4.81258459 5.18437567 7.0625 6.25 C7.701875 6.4975 8.34125 6.745 9 7 C8.42655063 9.86724686 8.1385485 10.8614515 6 13 C2.76814624 12.82990243 1.20874662 12.15930663 -1.375 10.1875 C-3 8 -3 8 -2.875 6 C-1.98198595 3.95882504 -1.05222641 1.96415596 0 0 Z " fill="#3A8184" transform="translate(231,323)"/>
<path d="M0 0 C-6.15369523 10.08698496 -6.15369523 10.08698496 -11 12 C-12.32 12 -13.64 12 -15 12 C-14.73290484 8.17163599 -14.23114937 6.29058777 -11.8125 3.25 C-7.90246042 0.12196834 -4.89697647 -1.63232549 0 0 Z " fill="#54AF82" transform="translate(229,155)"/>
<path d="M0 0 C0.33 0.99 0.66 1.98 1 3 C3.24496542 5.3293081 3.24496542 5.3293081 6 7 C9.10405796 6.81740836 10.34164013 5.77223991 13 4 C11.33248852 7.94139078 8.77289351 10.7892812 6 14 C2.00499382 12.6302836 -0.80009492 10.74277578 -4 8 C-3.40072174 4.64404172 -2.15377564 2.62198774 0 0 Z " fill="#6CA1A3" transform="translate(229,356)"/>
<path d="M0 0 C0.66 0.33 1.32 0.66 2 1 C1.17757812 1.51175781 0.35515625 2.02351562 -0.4921875 2.55078125 C-3.33646418 4.81281168 -3.33646418 4.81281168 -3.3828125 8.35546875 C-3.29773438 9.62003906 -3.21265625 10.88460937 -3.125 12.1875 C-2.83749958 18.48268869 -3.54837334 23.17738667 -6 29 C-7.65 29.33 -9.3 29.66 -11 30 C-13.83966497 25.74050254 -13.52380564 22.00272345 -13 17 C-12.20085222 14.51016964 -11.1559041 12.35997087 -10 10 C-10 9.01 -10 8.02 -10 7 C-7.25 5 -7.25 5 -4 3 C-2.65824027 2.01133494 -1.32103998 1.0161846 0 0 Z M-6 7 C-10.25848643 12.62560199 -12.47548498 17.83114957 -12 25 C-11.08469297 27.23970899 -11.08469297 27.23970899 -10 29 C-6.93650741 28.35835568 -6.93650741 28.35835568 -6.05078125 26.25 C-4.28234569 20.8604821 -3.12094339 15.68532713 -4 10 C-4.66 9.01 -5.32 8.02 -6 7 Z " fill="#C8E5D7" transform="translate(202,163)"/>
<path d="M0 0 C5.93989812 0.55254866 8.92750305 2.6416414 12.8125 7.0625 C14 9 14 9 14 12 C8.85355057 11.74895369 6.1005665 9.99451439 2.4140625 6.6328125 C0.58614395 4.52212203 0.08162857 2.77537132 0 0 Z " fill="#0F9051" transform="translate(233,146)"/>
<path d="M0 0 C2.56720553 1.8218878 3.84343921 3.28612954 4.5234375 6.38671875 C5.26123208 13.21630375 5.26123208 13.21630375 4 17 C0.83884224 15.63016497 0.0072908 15.0109362 -2 12 C-2.52173913 3.7826087 -2.52173913 3.7826087 0 0 Z " fill="#149254" transform="translate(232,163)"/>
<path d="M0 0 C0 0.66 0 1.32 0 2 C0.598125 2.103125 1.19625 2.20625 1.8125 2.3125 C4.36005783 3.11316103 5.41524098 3.86057532 7 6 C7 7.32 7 8.64 7 10 C7.66 10.33 8.32 10.66 9 11 C8.01 11 7.02 11 6 11 C5.896875 10.38125 5.79375 9.7625 5.6875 9.125 C5.12474627 6.63473516 5.12474627 6.63473516 2 5 C1.34 4.67 0.68 4.34 0 4 C-1.7074998 5.28062485 -3.37373596 6.61767557 -5 8 C-5 8.66 -5 9.32 -5 10 C-4.34 10.33 -3.68 10.66 -3 11 C-3.99 11.66 -4.98 12.32 -6 13 C-6.53394179 11.5882217 -7.05165104 10.17029756 -7.5625 8.75 C-7.85253906 7.96109375 -8.14257812 7.1721875 -8.44140625 6.359375 C-9.05200662 3.78033567 -8.98889737 2.44252247 -8 0 C-5.13822943 -1.43088528 -3.06624227 -0.59991697 0 0 Z " fill="#9ABEC0" transform="translate(208,359)"/>
<path d="M0 0 C4.32239956 3.34003602 7.17477391 6.32751069 10 11 C7.47524538 12.26237731 5.68799534 12.09856404 2.875 12.0625 C1.96492187 12.05347656 1.05484375 12.04445313 0.1171875 12.03515625 C-0.58148438 12.02355469 -1.28015625 12.01195312 -2 12 C-1.85904936 10.3745692 -1.71207913 8.74965949 -1.5625 7.125 C-1.48128906 6.22007812 -1.40007812 5.31515625 -1.31640625 4.3828125 C-1 2 -1 2 0 0 Z " fill="#108E52" transform="translate(181,260)"/>
<path d="M0 0 C3.875 1.75 3.875 1.75 5 4 C4.1646875 4.061875 4.1646875 4.061875 3.3125 4.125 C0.72559348 5.10382949 0.05977846 5.93777939 -1.625 8.0625 C-2.40875 9.031875 -3.1925 10.00125 -4 11 C-4.66 11 -5.32 11 -6 11 C-6.93065133 13.60582371 -7.14917407 14.64198224 -6.0625 17.25 C-5.5365625 18.11625 -5.5365625 18.11625 -5 19 C-5.99 18.67 -6.98 18.34 -8 18 C-8 17.34 -8 16.68 -8 16 C-8.99 15.67 -9.98 15.34 -11 15 C-10.87747396 10.95664073 -9.38486072 9.11161979 -6.625 6.375 C-5.42231466 5.243964 -4.21415263 4.11871705 -3 3 C-1.99546492 2.00455574 -0.99388396 1.00607886 0 0 Z " fill="#579496" transform="translate(270,344)"/>
<path d="M0 0 C3.45201639 1.47721422 5.64961936 3.43794001 8.25 6.125 C8.95640625 6.84945313 9.6628125 7.57390625 10.390625 8.3203125 C11.18726563 9.15175781 11.18726563 9.15175781 12 10 C8 14.66666667 4 19.33333333 0 24 C-1.32 23.34 -2.64 22.68 -4 22 C0 18 4 14 8 10 C7.59007812 9.52949219 7.18015625 9.05898438 6.7578125 8.57421875 C6.21898437 7.95160156 5.68015625 7.32898438 5.125 6.6875 C4.59132813 6.07261719 4.05765625 5.45773437 3.5078125 4.82421875 C2 3 2 3 0 0 Z " fill="#77A8AA" transform="translate(277,350)"/>
<path d="M0 0 C0.763125 0.33 1.52625 0.66 2.3125 1 C0.53800808 3.25682026 -0.31937653 3.9470039 -3.2109375 4.36328125 C-4.15195313 4.34652344 -5.09296875 4.32976562 -6.0625 4.3125 C-6.99835938 4.30863281 -7.93421875 4.30476562 -8.8984375 4.30078125 C-11.81297646 3.98646823 -14.03158799 3.21206166 -16.6875 2 C-16.6875 1.34 -16.6875 0.68 -16.6875 0 C-11.85454501 -2.41647749 -5.03282779 -1.36483465 0 0 Z " fill="#109051" transform="translate(203.6875,157)"/>
<path d="M0 0 C0.27585938 0.59941406 0.55171875 1.19882813 0.8359375 1.81640625 C2.03406611 4.27187288 2.03406611 4.27187288 4.625 6.9375 C8.30619258 11.91091062 7.78450385 18.09557627 7 24 C6.34 24.66 5.68 25.32 5 26 C3.0625 26 3.0625 26 1 25 C-2.62388357 19.95244789 -2.54317022 14.95706361 -2 9 C-1.47406017 5.95674134 -0.80636256 2.9806616 0 0 Z M1 7 C-1.46655092 10.69982638 -1.71480371 14.70266817 -1 19 C0.70340573 22.00832431 0.70340573 22.00832431 3 24 C3.66 24 4.32 24 5 24 C6.19137147 17.66994194 6.19430158 13.67875836 3 8 C2.34 7.67 1.68 7.34 1 7 Z " fill="#E2F1E9" transform="translate(231,156)"/>
<path d="M0 0 C-3.21252512 3.72652914 -6.36276488 5.40095341 -11 7 C-14.4375 7.1875 -14.4375 7.1875 -17 7 C-17 6.01 -17 5.02 -17 4 C-11.02667877 0.5246131 -6.88490225 -0.57374185 0 0 Z " fill="#0D8E4F" transform="translate(183,176)"/>
<path d="M0 0 C1.54859022 4.64577067 -0.7506689 7.80824993 -2.6875 12.125 C-3.04005859 12.96160156 -3.39261719 13.79820312 -3.75585938 14.66015625 C-4.28469727 15.85318359 -4.28469727 15.85318359 -4.82421875 17.0703125 C-5.14479248 17.80008301 -5.46536621 18.52985352 -5.7956543 19.28173828 C-7 21 -7 21 -9.13598633 21.74560547 C-10.0586731 21.87153076 -10.0586731 21.87153076 -11 22 C-10.35014905 17.28629244 -8.48438608 13.42313556 -6.4375 9.1875 C-5.9434668 8.14819336 -5.9434668 8.14819336 -5.43945312 7.08789062 C-4.63127749 5.38955052 -3.81631623 3.69444231 -3 2 C-2.34 2 -1.68 2 -1 2 C-0.67 1.34 -0.34 0.68 0 0 Z " fill="#86B2B3" transform="translate(246,368)"/>
<path d="M0 0 C0.66 0 1.32 0 2 0 C4.56126553 5.57451909 4.24693506 11.09717031 3 17 C2.34 17.33 1.68 17.66 1 18 C-1.23157731 14.42771221 -1.23870158 11.46913776 -1.1875 7.3125 C-1.18105469 6.15363281 -1.17460937 4.99476563 -1.16796875 3.80078125 C-1 1 -1 1 0 0 Z " fill="#0B8D4D" transform="translate(247,125)"/>
<path d="M0 0 C0.99 0.33 1.98 0.66 3 1 C3.94921875 3.28515625 3.94921875 3.28515625 4.6875 6.0625 C5.06455078 7.44115234 5.06455078 7.44115234 5.44921875 8.84765625 C5.63097656 9.55792969 5.81273437 10.26820313 6 11 C4.58208592 10.54554036 3.16571954 10.08625056 1.75 9.625 C0.96109375 9.36976563 0.1721875 9.11453125 -0.640625 8.8515625 C-2.86627958 8.04826333 -4.90931672 7.10288338 -7 6 C-5.73134318 3.46268636 -4.50290879 3.21353154 -2 2 C-1.34 1.34 -0.68 0.68 0 0 Z " fill="#5F989A" transform="translate(180,365)"/>
<path d="M0 0 C2.4375 0.9375 2.4375 0.9375 3.75 3 C4.0903125 3.9590625 4.0903125 3.9590625 4.4375 4.9375 C3.4475 5.2675 2.4575 5.5975 1.4375 5.9375 C1.1075 5.2775 0.7775 4.6175 0.4375 3.9375 C-0.5525 4.2675 -1.5425 4.5975 -2.5625 4.9375 C-1.923125 5.659375 -1.28375 6.38125 -0.625 7.125 C1.42423535 9.91941184 2.05082946 11.55413274 2.4375 14.9375 C3.4275 15.2675 4.4175 15.5975 5.4375 15.9375 C5.1075 16.5975 4.7775 17.2575 4.4375 17.9375 C2.17873209 15.83450919 0.47627978 14.00536461 -1.0625 11.3125 C-2.73588997 8.66296589 -3.8286905 8.26031105 -6.5625 6.9375 C-7.8125 4.8125 -7.8125 4.8125 -8.5625 2.9375 C-7.5725 2.9375 -6.5825 2.9375 -5.5625 2.9375 C-5.10875 2.421875 -4.655 1.90625 -4.1875 1.375 C-2.5625 -0.0625 -2.5625 -0.0625 0 0 Z " fill="#ACCACB" transform="translate(182.5625,355.0625)"/>
<path d="M0 0 C0.66 0 1.32 0 2 0 C3.625 2 3.625 2 5 4 C4.67 4.66 4.34 5.32 4 6 C2.68 5.01 1.36 4.02 0 3 C-1.41577477 4.18424326 -1.41577477 4.18424326 -1.0625 7.5625 C-1.041875 8.696875 -1.02125 9.83125 -1 11 C1.64 11 4.28 11 7 11 C6.67 11.66 6.34 12.32 6 13 C2.54956883 14.15014372 -0.35282355 15 -4 15 C-5.6875 13.5 -5.6875 13.5 -7 12 C-6.67 11.01 -6.34 10.02 -6 9 C-5.34 8.67 -4.68 8.34 -4 8 C-3.32060826 6.00428677 -2.65438441 4.00405227 -2 2 C-1.34 1.34 -0.68 0.68 0 0 Z " fill="#B2CECF" transform="translate(216,335)"/>
<path d="M0 0 C0.99 0.99 1.98 1.98 3 3 C2.34 3.66 1.68 4.32 1 5 C1.66 5.33 2.32 5.66 3 6 C2.63076923 13.26153846 2.63076923 13.26153846 -0.5625 17 C-1.366875 17.66 -2.17125 18.32 -3 19 C-2.814375 18.38125 -2.62875 17.7625 -2.4375 17.125 C-1.76313824 14.95839822 -1.76313824 14.95839822 -3 13 C-2.01 13 -1.02 13 0 13 C0.042721 11.33388095 0.04063832 9.66617115 0 8 C-1.10528442 6.68031822 -1.10528442 6.68031822 -3.875 6.75 C-6.99091888 6.70551216 -6.99091888 6.70551216 -8.875 8.5 C-9.24625 8.995 -9.6175 9.49 -10 10 C-10 9.01 -10 8.02 -10 7 C-7.27616333 4.57881185 -4.12423738 2.85765466 -1 1 C-0.67 0.67 -0.34 0.34 0 0 Z " fill="#B3CECF" transform="translate(245,341)"/>
<path d="M0 0 C0 0.66 0 1.32 0 2 C-0.66 2 -1.32 2 -2 2 C-1.49019669 5.77254453 -0.79299818 7.44987123 2 10 C2 10.66 2 11.32 2 12 C2.66 12.33 3.32 12.66 4 13 C2.35 14.32 0.7 15.64 -1 17 C-1 16.01 -1 15.02 -1 14 C-2.31081054 11.67008245 -2.31081054 11.67008245 -4 9.3125 C-4.556875 8.50425781 -5.11375 7.69601562 -5.6875 6.86328125 C-6.120625 6.24839844 -6.55375 5.63351562 -7 5 C-2.25 0 -2.25 0 0 0 Z " fill="#A7C7C8" transform="translate(225,329)"/>
<path d="M0 0 C0 0.33 0 0.66 0 1 C-1.65 1 -3.3 1 -5 1 C-4.505 1.61875 -4.01 2.2375 -3.5 2.875 C-2 5 -2 5 -2 7 C-1.34 7 -0.68 7 0 7 C0 7.66 0 8.32 0 9 C0.66 9 1.32 9 2 9 C1.67 9.99 1.34 10.98 1 12 C-2 12 -2 12 -3.60546875 10.46875 C-4.12753906 9.8190625 -4.64960938 9.169375 -5.1875 8.5 C-5.71730469 7.8503125 -6.24710937 7.200625 -6.79296875 6.53125 C-7.19128906 6.0259375 -7.58960938 5.520625 -8 5 C-8.99 5.495 -8.99 5.495 -10 6 C-7.83322503 -0.036016 -6.28508493 -0.13663228 0 0 Z " fill="#91B8BA" transform="translate(329,367)"/>
<path d="M0 0 C2 1 2 1 3 3 C2.01 3 1.02 3 0 3 C0 3.66 0 4.32 0 5 C1.32 4.67 2.64 4.34 4 4 C4 3.01 4 2.02 4 1 C4.66 1 5.32 1 6 1 C5.979375 1.969375 5.95875 2.93875 5.9375 3.9375 C5.64381501 6.87465895 5.64381501 6.87465895 7 8 C7.59016399 14.63934484 5.75588717 20.63490902 4 27 C3.34 26.34 2.68 25.68 2 25 C2.495 23.4221875 2.495 23.4221875 3 21.8125 C3.83966782 18.61126643 4.19750904 16.2588992 4 13 C4.66 13 5.32 13 6 13 C5.43923199 10.50995496 5.43923199 10.50995496 4 8 C0.97017694 6.62810173 0.97017694 6.62810173 -2 6 C-1.34 4.02 -0.68 2.04 0 0 Z " fill="#C1D7D8" transform="translate(259,313)"/>
<path d="M0 0 C1.32 0.33 2.64 0.66 4 1 C2.02 3.31 0.04 5.62 -2 8 C-2.66 7.67 -3.32 7.34 -4 7 C-4 6.67 -4 6.34 -4 6 C-4.69480469 6.16371094 -5.38960937 6.32742187 -6.10546875 6.49609375 C-9.2352816 7.04095996 -12.13798083 7.09738483 -15.3125 7.0625 C-16.38113281 7.05347656 -17.44976562 7.04445312 -18.55078125 7.03515625 C-19.35902344 7.02355469 -20.16726562 7.01195312 -21 7 C-20.67 6.01 -20.34 5.02 -20 4 C-19.67 4.66 -19.34 5.32 -19 6 C-16.93643105 5.7159949 -14.8741715 5.42246648 -12.8125 5.125 C-11.08966797 4.88136719 -11.08966797 4.88136719 -9.33203125 4.6328125 C-6.28935578 4.05495385 -3.77172612 3.36812807 -1 2 C-0.67 1.34 -0.34 0.68 0 0 Z " fill="#D3EADF" transform="translate(240,126)"/>
<path d="M0 0 C0.33 0 0.66 0 1 0 C1 15.18 1 30.36 1 46 C0.67 46 0.34 46 0 46 C-0.02505615 44.8039917 -0.0501123 43.6079834 -0.07592773 42.37573242 C-0.17003852 37.94202805 -0.27025036 33.508479 -0.37231445 29.07495117 C-0.4156494 27.15539175 -0.45732552 25.23579415 -0.49731445 23.31616211 C-0.55505178 20.55831386 -0.61873635 17.80065759 -0.68359375 15.04296875 C-0.70030624 14.18350143 -0.71701874 13.32403412 -0.73423767 12.43852234 C-0.75418289 11.63791885 -0.77412811 10.83731537 -0.79467773 10.01245117 C-0.81022202 9.3085173 -0.8257663 8.60458344 -0.84178162 7.87931824 C-0.94481604 5.77300917 -0.94481604 5.77300917 -2 3 C-1.34 2.01 -0.68 1.02 0 0 Z " fill="#C0DFD1" transform="translate(345,243)"/>
<path d="M0 0 C-1 3 -1 3 -2.9375 4.125 C-7.19429267 5.34122648 -11.56074589 6.09428504 -16 6 C-16.66 5.34 -17.32 4.68 -18 4 C-6.45283019 0 -6.45283019 0 0 0 Z " fill="#178F58" transform="translate(240,126)"/>
<path d="M0 0 C0.33 0.99 0.66 1.98 1 3 C-0.546875 5.48046875 -0.546875 5.48046875 -2.75 8.1875 C-3.46671875 9.08855469 -4.1834375 9.98960937 -4.921875 10.91796875 C-5.95054687 11.94857422 -5.95054687 11.94857422 -7 13 C-7.99 13 -8.98 13 -10 13 C-10 8.41771462 -7.08388033 6.1816619 -4 3 C-1.625 1.0625 -1.625 1.0625 0 0 Z " fill="#80AEAF" transform="translate(254,381)"/>
<path d="M0 0 C2.625 0.25 2.625 0.25 4.4375 1.5 C5.625 3.25 5.625 3.25 5.625 7.25 C2.325 6.59 -0.975 5.93 -4.375 5.25 C-3.14527027 0.33108108 -3.14527027 0.33108108 0 0 Z " fill="#15696C" transform="translate(259.375,318.75)"/>
<path d="M0 0 C0 3.33333333 0 6.66666667 0 10 C-0.99 10 -1.98 10 -3 10 C-3 9.34 -3 8.68 -3 8 C-3.66 8 -4.32 8 -5 8 C-8 4.53846154 -8 4.53846154 -8 2 C-6.865625 1.855625 -5.73125 1.71125 -4.5625 1.5625 C-1.19222799 1.38828522 -1.19222799 1.38828522 0 0 Z " fill="#4D8D8F" transform="translate(332,366)"/>
<path d="M0 0 C0.33 0 0.66 0 1 0 C1 1.98 1 3.96 1 6 C1.66 6.33 2.32 6.66 3 7 C1.52459016 13.63934426 1.52459016 13.63934426 -1 15.375 C-1.66 15.58125 -2.32 15.7875 -3 16 C-3.66 16.33 -4.32 16.66 -5 17 C-4.34 15.35 -3.68 13.7 -3 12 C-3.99 12 -4.98 12 -6 12 C-6.66 11.67 -7.32 11.34 -8 11 C-3.375 8 -3.375 8 0 8 C0 5.36 0 2.72 0 0 Z " fill="#C4E3D4" transform="translate(230,144)"/>
<path d="M0 0 C2.875 -0.125 2.875 -0.125 6 0 C8 2 8 2 8.125 4.625 C8.08375 5.40875 8.0425 6.1925 8 7 C7.01 7.495 7.01 7.495 6 8 C3.69 6.35 1.38 4.7 -1 3 C-0.67 2.01 -0.34 1.02 0 0 Z " fill="#15696C" transform="translate(238,347)"/>
<path d="M0 0 C1.32 0.66 2.64 1.32 4 2 C4 5 4 5 2 7.1875 C1.01 8.0846875 1.01 8.0846875 0 9 C-1.32 8.34 -2.64 7.68 -4 7 C-2.79618552 4.50638429 -1.54571278 2.31856917 0 0 Z " fill="#15696C" transform="translate(176,361)"/>
<path d="M0 0 C0.33 1.32 0.66 2.64 1 4 C-0.98 4.99 -0.98 4.99 -3 6 C-3.33 5.01 -3.66 4.02 -4 3 C-4.97582031 3.51691406 -5.95164062 4.03382813 -6.95703125 4.56640625 C-8.24191582 5.23229533 -9.52708715 5.89763128 -10.8125 6.5625 C-11.45509766 6.90474609 -12.09769531 7.24699219 -12.75976562 7.59960938 C-14.46926395 8.4765023 -16.23321294 9.24515617 -18 10 C-18.99 9.67 -19.98 9.34 -21 9 C-17.87797994 7.49373883 -14.75191601 5.99606757 -11.625 4.5 C-10.73554688 4.07074219 -9.84609375 3.64148438 -8.9296875 3.19921875 C-8.07890625 2.79316406 -7.228125 2.38710938 -6.3515625 1.96875 C-5.56604004 1.59169922 -4.78051758 1.21464844 -3.97119141 0.82617188 C-2 0 -2 0 0 0 Z " fill="#98BDBE" transform="translate(304,370)"/>
<path d="M0 0 C0.33 0.99 0.66 1.98 1 3 C-2.96 5.64 -6.92 8.28 -11 11 C-12.32 10.34 -13.64 9.68 -15 9 C-11.19791273 5.69383716 -5.16418515 2 0 2 C0 1.34 0 0.68 0 0 Z " fill="#B7D1D2" transform="translate(312,386)"/>
<path d="M0 0 C0.66 0.33 1.32 0.66 2 1 C1.18144531 1.52078125 0.36289063 2.0415625 -0.48046875 2.578125 C-3.30608847 4.80186373 -3.30608847 4.80186373 -3.48828125 8.234375 C-3.43027344 9.39453125 -3.37226563 10.5546875 -3.3125 11.75 C-3.24482422 13.50570312 -3.24482422 13.50570312 -3.17578125 15.296875 C-3.11777344 16.18890625 -3.05976563 17.0809375 -3 18 C-3.33 18 -3.66 18 -4 18 C-4.66 14.7 -5.32 11.4 -6 8 C-6.99 8.66 -7.98 9.32 -9 10 C-9.66 9.34 -10.32 8.68 -11 8 C-7.37 5.36 -3.74 2.72 0 0 Z " fill="#D8EDE2" transform="translate(202,163)"/>
<path d="M0 0 C0.556875 0.226875 1.11375 0.45375 1.6875 0.6875 C0.5 3.125 0.5 3.125 -1.3125 5.6875 C-4 6.5 -4 6.5 -6.3125 6.6875 C-6.6425 5.3675 -6.9725 4.0475 -7.3125 2.6875 C-2.88173077 -0.38942308 -2.88173077 -0.38942308 0 0 Z " fill="#639B9D" transform="translate(291.3125,398.3125)"/>
<path d="M0 0 C2.475 0.495 2.475 0.495 5 1 C3.515625 3.51171875 3.515625 3.51171875 1 6 C-2.00067987 6.20787843 -4.32101412 6.17215463 -7.25 5.8125 C-7.99507812 5.74224609 -8.74015625 5.67199219 -9.5078125 5.59960938 C-11.34096497 5.42334471 -13.17096315 5.21480549 -15 5 C-15 4.67 -15 4.34 -15 4 C-13.62714844 3.92652344 -13.62714844 3.92652344 -12.2265625 3.8515625 C-11.03804687 3.77679688 -9.84953125 3.70203125 -8.625 3.625 C-7.44164062 3.55539063 -6.25828125 3.48578125 -5.0390625 3.4140625 C-1.89437681 3.29782654 -1.89437681 3.29782654 0 1 C0 0.67 0 0.34 0 0 Z " fill="#EFF7F3" transform="translate(205,157)"/>
<path d="M0 0 C1.98 0 3.96 0 6 0 C6 1.32 6 2.64 6 4 C4.68 4 3.36 4 2 4 C1.34 4.66 0.68 5.32 0 6 C-0.66 5.67 -1.32 5.34 -2 5 C-1.34 3.35 -0.68 1.7 0 0 Z " fill="#B3CECF" transform="translate(247,362)"/>
<path d="M0 0 C0.99 0.33 1.98 0.66 3 1 C0.19195732 3.96404505 -2.18315774 6.44499019 -6 8 C-5.66354211 4.85972637 -4.94763914 3.94901705 -2.625 1.6875 C-1.75875 1.130625 -0.8925 0.57375 0 0 Z " fill="#1E6F72" transform="translate(208,362)"/>
<path d="M0 0 C1.6254308 0.14095064 3.25034051 0.28792087 4.875 0.4375 C5.77992188 0.51871094 6.68484375 0.59992188 7.6171875 0.68359375 C10 1 10 1 12 2 C10.73160474 2.50615298 9.46016898 3.00469099 8.1875 3.5 C7.12595703 3.91765625 7.12595703 3.91765625 6.04296875 4.34375 C4 5 4 5 1 5 C0.67 3.35 0.34 1.7 0 0 Z " fill="#82AFB1" transform="translate(211,345)"/>
<path d="M0 0 C0.99 0.33 1.98 0.66 3 1 C-0.16952847 4.26008643 -3.39937989 7.22237877 -7 10 C-7 7 -7 7 -5.46875 5.17578125 C-4.8190625 4.56089844 -4.169375 3.94601563 -3.5 3.3125 C-2.8503125 2.68988281 -2.200625 2.06726563 -1.53125 1.42578125 C-0.77328125 0.72001953 -0.77328125 0.72001953 0 0 Z " fill="#BFE1D1" transform="translate(235,134)"/>
<path d="M0 0 C1.485 0.99 1.485 0.99 3 2 C3 2.66 3 3.32 3 4 C3.66 4 4.32 4 5 4 C5 4.66 5 5.32 5 6 C5.66 6 6.32 6 7 6 C6.67 6.99 6.34 7.98 6 9 C5.01 9 4.02 9 3 9 C0 3.375 0 3.375 0 0 Z " fill="#7FADAF" transform="translate(324,370)"/>
<path d="M0 0 C0.33 0 0.66 0 1 0 C1 1.65 1 3.3 1 5 C2.32 5.33 3.64 5.66 5 6 C3.68 6.33 2.36 6.66 1 7 C1 7.99 1 8.98 1 10 C0.34 10 -0.32 10 -1 10 C-1.02689216 8.52093108 -1.04634621 7.04172517 -1.0625 5.5625 C-1.07410156 4.73878906 -1.08570313 3.91507813 -1.09765625 3.06640625 C-1 1 -1 1 0 0 Z " fill="#E1F1E9" transform="translate(232,139)"/>
<path d="M0 0 C0.99 0.33 1.98 0.66 3 1 C2.979375 1.78375 2.95875 2.5675 2.9375 3.375 C2.81315937 5.98114961 2.81315937 5.98114961 4 8 C1.37812506 6.95125002 0.20628639 6.35068687 -1.25 3.875 C-1.4975 3.25625 -1.745 2.6375 -2 2 C-1.34 1.34 -0.68 0.68 0 0 Z " fill="#BED5D6" transform="translate(266,376)"/>
<path d="M0 0 C4.04420651 1.77945087 7.46078487 4.39529673 11 7 C10.67 7.66 10.34 8.32 10 9 C4.70499087 7.63842622 2.76254467 4.39656045 0 0 Z " fill="#357E80" transform="translate(259,377)"/>
<path d="M0 0 C2.97 0.495 2.97 0.495 6 1 C6 2.32 6 3.64 6 5 C4.35 5 2.7 5 1 5 C0.67 3.35 0.34 1.7 0 0 Z " fill="#3B8284" transform="translate(214,377)"/>
<path d="M0 0 C0.77085937 0.22816406 1.54171875 0.45632813 2.3359375 0.69140625 C3.33882812 0.97886719 4.34171875 1.26632812 5.375 1.5625 C6.87160156 1.99755859 6.87160156 1.99755859 8.3984375 2.44140625 C10.9677164 3.27656482 10.9677164 3.27656482 13 2 C13 2.99 13 3.98 13 5 C7.06 4.01 7.06 4.01 1 3 C0.67 2.01 0.34 1.02 0 0 Z " fill="#8FB8B9" transform="translate(249,339)"/>
<path d="M0 0 C0.598125 0.495 1.19625 0.99 1.8125 1.5 C3.97029994 3.28276418 3.97029994 3.28276418 7 3 C7.33 3.99 7.66 4.98 8 6 C7.67 6.66 7.34 7.32 7 8 C6.34 8 5.68 8 5 8 C0 2.52380952 0 2.52380952 0 0 Z " fill="#45888A" transform="translate(222,333)"/>
<path d="M0 0 C1.98 1.65 3.96 3.3 6 5 C6.33 4.01 6.66 3.02 7 2 C7 3.32 7 4.64 7 6 C5.68 6.33 4.36 6.66 3 7 C0 3.375 0 3.375 0 0 Z " fill="#CCE7DA" transform="translate(230,175)"/>
<path d="M0 0 C1.32 0.33 2.64 0.66 4 1 C2.02 3.31 0.04 5.62 -2 8 C-2.66 7.67 -3.32 7.34 -4 7 C-3.525625 6.21625 -3.05125 5.4325 -2.5625 4.625 C-1.66101977 3.11051322 -0.78820515 1.5764103 0 0 Z " fill="#EAF5F0" transform="translate(240,126)"/>
<path d="M0 0 C1 3 1 3 -0.4375 6.1875 C-1.2109375 7.5796875 -1.2109375 7.5796875 -2 9 C-2.99 8.67 -3.98 8.34 -5 8 C-4.34 6.02 -3.68 4.04 -3 2 C-2.34 2 -1.68 2 -1 2 C-0.67 1.34 -0.34 0.68 0 0 Z " fill="#9EC1C2" transform="translate(246,368)"/>
<path d="M0 0 C0.99 0.33 1.98 0.66 3 1 C1.25 4.875 1.25 4.875 -1 6 C-1 5.34 -1 4.68 -1 4 C-1.66 3.67 -2.32 3.34 -3 3 C-2.01 2.01 -1.02 1.02 0 0 Z " fill="#89B4B5" transform="translate(259,398)"/>
<path d="M0 0 C1.98 0.99 1.98 0.99 4 2 C4 3.32 4 4.64 4 6 C2.68 5.34 1.36 4.68 0 4 C0 2.68 0 1.36 0 0 Z " fill="#6FA3A5" transform="translate(185,359)"/>
<path d="M0 0 C2.96404505 2.80804268 5.44499019 5.18315774 7 9 C3.17475764 7.549046 1.80909034 5.61818068 0 2 C0 1.34 0 0.68 0 0 Z " fill="#3F8487" transform="translate(218,335)"/>
</svg>
